<?xml version="1.0" encoding="UTF-8" standalone="no"?>
<!-- Created with Inkscape (http://www.inkscape.org/) -->

<svg
   version="1.1"
   id="svg2"
   width="377.879"
   height="173.81433"
   viewBox="0 0 380.04786 174.81195"
   xmlns="http://www.w3.org/2000/svg"
   xmlns:svg="http://www.w3.org/2000/svg">
  <defs
     id="defs6" />
  <g
     id="g8"
     transform="translate(-38.798,-66.188052)">
    <path
       style="fill:#000000;stroke:none;stroke-width:0.999951"
       d="m 181.64435,134 c -8.24953,-1.35894 -25.35003,-4.32683 -34.22093,-5.97002 -0.45499,-4.48159 -1.22547,-9.26043 -2.87985,-13.1595 -1.42115,-3.27541 -3.52796,-6.79217 -5.52443,-9.17652 C 125.50213,87.352858 99.945403,81.2334 79.645413,90.5394 39.070313,109.14 41.994353,166.905 67.018383,196.826 c 14.08899,16.847 36.031987,24.565 57.625947,23.084 46.78204,-3.206 74.25506,-43.04 105.00003,-72.74 28.90998,-27.928 71.78491,-48.9251 113.00009,-45 20.7589,1.977 42.39081,7.55 60.9999,17.089 5.51271,2.826 16.6179,8.013 15.05171,15.737 -2.88421,14.224 -22.12091,23.026 -34.0517,27.735 -35.87101,14.16 -76.18018,12.71544 -113.20225,3.87644 2.80566,-2.76633 3.02565,-2.84536 6.23223,-6.29542 8.78851,1.93253 21.33969,2.17186 30.97004,2.42898 19.80001,0.528 46.87591,-6.291 60.94517,-20.78 11.85541,-12.21 5.46011,-26.793 -10.94513,-28.777 -17.07803,-2.064 -36.99,6.974 -51.00012,15.819 -17.13297,10.817 -29.86495,25.794 -44.00098,39.997 -33.73493,33.896 -73.11397,72.02 -123.99886,72 -11.24905,-0.004 -22.30211,-2.45 -33.00015,-5.754 C 93.549403,231.202 81.206373,224.049 70.644563,215.384 55.811393,203.216 42.666403,183.348 39.852333,164 34.921393,130.093 47.192443,92.4706 78.644333,74.9005 108.87038,58.015 153.35134,66.0034 172.55436,96 c 7.58001,11.841 9.08999,24.299 9.08999,38 m -0.65924,4.82651 c -0.45566,3.02945 -1.34076,5.94849 -2.72883,8.75712 -11.55101,-2.4849 -21.54056,-4.32548 -32.17888,-6.79721 0.33245,-2.88367 0.36595,-2.87433 1.05262,-8.20279 M 176.64435,152 c -11.971,28.556 -47.89596,42.448 -75.99999,30.42 -9.681987,-4.144 -30.409957,-19.593 -28.787997,-32.271 0.84998,-6.643 6.46784,1.125 7.54799,2.856 11.62899,18.641 33.895027,23.208 51.524967,9.635 4.56904,-3.517 11.45328,-8.44431 14.72538,-17.67318 6.47852,1.44215 22.90666,5.04218 30.98965,7.03318 z"
       id="path178" />
  </g>
</svg>
